<?xml version="1.0" encoding="utf-8"?>
<!-- Generator: Adobe Illustrator 24.0.0, SVG Export Plug-In . SVG Version: 6.00 Build 0)  -->
<svg version="1.1" id="Capa_1" xmlns="http://www.w3.org/2000/svg" xmlns:xlink="http://www.w3.org/1999/xlink" x="0px" y="0px"
	 viewBox="0 0 418.8 53.6" style="enable-background:new 0 0 418.8 53.6;" xml:space="preserve">
<style type="text/css">
	.st0{fill:#333333;stroke:#333300;stroke-miterlimit:10;}
	.st1{fill:#666666;stroke:#666666;stroke-miterlimit:10;}
</style>
<title>glowebcamp</title>
<path class="st0" d="M19.9,25.5h18.8V48c-2.1,1.7-4.6,3-7.2,3.7c-2.7,0.7-5.5,1.1-8.3,1.2c-3.1,0-6.1-0.5-9-1.5
	c-2.7-1-5.2-2.6-7.2-4.7c-2.1-2.4-3.7-5.2-4.7-8.2c-1.2-3.8-1.8-7.9-1.8-11.9c-0.1-4.1,0.6-8.2,2-12.1c1.2-3.1,3-5.8,5.4-8.1
	c2.1-2,4.7-3.6,7.5-4.5C18.2,1,21,0.5,23.9,0.5c2.5,0,5.1,0.2,7.6,0.6c1.8,0.3,3.6,0.8,5.3,1.4l-2,8.3c-1.3-0.5-2.6-0.9-4-1.1
	c-1.9-0.3-3.8-0.4-5.7-0.4c-1.9,0-3.9,0.3-5.7,0.9c-1.7,0.6-3.3,1.7-4.5,3.1c-1.4,1.6-2.4,3.4-3,5.4c-0.7,2.6-1.1,5.4-1,8.1
	c-0.1,2.6,0.3,5.3,1,7.8c0.6,2,1.5,3.8,2.8,5.4c1.1,1.4,2.6,2.4,4.2,3.1c1.6,0.7,3.4,1,5.2,1c1.3,0,2.5-0.1,3.7-0.5
	c1.1-0.3,2.1-0.7,3-1.4v-9.5l-10.9-1.2V25.5z"/>
<path class="st1" d="M74.3,52H44.6V8.5h9.2v35.9h20.4V52z"/>
<path class="st0" d="M131.4,29.6l0.9,8.9h0.3l1-9.1l8.8-28h6.5l8.6,28.2l1,8.9h0.3l1.1-9.1l6.3-28h9.9l-13.9,50.8h-6.6l-9-28
	l-1.2-7.7H145l-1.2,7.8l-9,27.9h-7L114,1.4h10.7L131.4,29.6z"/>
<path class="st1" d="M177.8,8.5h28.1v7.6h-18.8v10.1h17.1v7.6h-17.1v10.6h19.2v7.6h-28.4L177.8,8.5L177.8,8.5z"/>
<path class="st1" d="M244.9,18.7c0,1.1-0.2,2.1-0.5,3.2c-0.3,1.1-0.8,2.1-1.4,2.9c-0.7,0.9-1.6,1.7-2.6,2.3
	c-1.2,0.7-2.5,1.2-3.9,1.6V29c1.3,0.2,2.6,0.5,3.9,1c1.2,0.5,2.3,1.2,3.2,2.1c0.9,0.9,1.7,2,2.2,3.2c0.6,1.4,0.8,2.9,0.8,4.4
	c0.1,2.1-0.4,4.1-1.5,5.9c-1,1.7-2.5,3-4.1,4c-1.9,1-3.8,1.8-5.9,2.3c-2.2,0.5-4.6,0.8-6.9,0.8h-2.9c-1.2,0-2.4,0-3.9-0.1l-4.2-0.3
	c-1.3-0.1-2.6-0.3-3.9-0.6V8.9c0.9-0.1,1.9-0.3,2.9-0.4s2.3-0.3,3.6-0.3s2.5-0.2,3.9-0.2s2.6-0.1,3.9-0.1c2.2,0,4.3,0.2,6.5,0.4
	c1.9,0.3,3.8,0.8,5.6,1.6c1.6,0.7,2.9,1.9,3.9,3.3C244.6,14.9,245,16.8,244.9,18.7z M225.2,26.8c0.7,0,1.4,0,2.2-0.1
	c0.7,0,1.4-0.1,2.1-0.2c1.6-0.4,3.1-1.2,4.4-2.2c1.2-0.9,1.9-2.3,1.9-3.9c0-0.9-0.2-1.9-0.6-2.7c-0.4-0.7-1.1-1.3-1.8-1.6
	c-0.8-0.4-1.7-0.7-2.5-0.9c-1-0.2-2-0.3-3-0.3c-1.1,0-2.3,0-3.3,0.1c-0.8,0-1.6,0.1-2.4,0.2v11.5H225.2z M228.1,45.4
	c1.1,0,2.2-0.1,3.2-0.3c1-0.2,1.9-0.6,2.7-1.1c0.8-0.5,1.4-1.1,1.9-1.9c0.5-0.8,0.7-1.8,0.8-2.8c0.1-1.1-0.2-2.2-0.8-3.2
	c-0.6-0.8-1.4-1.4-2.3-1.8c-1-0.5-2-0.7-3.1-0.9c-1.1-0.1-2.4-0.2-3.5-0.2h-4.9v11.9c0.3,0.1,0.7,0.2,1,0.2c0.5,0,1,0.1,1.6,0.1
	l1.7,0.1C226.9,45.5,227.5,45.4,228.1,45.4L228.1,45.4z"/>
<path class="st0" d="M287.6,49.8c-1.7,1.2-3.7,2-5.8,2.4c-2.4,0.5-4.8,0.7-7.3,0.7c-3,0-5.9-0.5-8.7-1.4c-2.7-0.9-5.2-2.5-7.2-4.5
	c-2.2-2.3-3.9-5.1-4.9-8.1c-1.3-3.9-1.9-8-1.8-12.1c-0.1-4.2,0.6-8.4,2-12.4c1.2-3,3-5.8,5.3-8.1c2.1-2,4.6-3.5,7.3-4.4
	c2.6-0.9,5.3-1.3,8.1-1.3c2.4,0,4.9,0.2,7.3,0.6c1.7,0.3,3.3,0.8,4.9,1.4l-1.9,8.4c-1.2-0.6-2.5-1-3.9-1.1c-1.8-0.3-3.7-0.4-5.5-0.4
	c-3.7-0.1-7.2,1.4-9.6,4.2c-2.4,2.8-3.6,7.2-3.6,13.2c0,2.4,0.3,4.8,0.9,7.1c0.5,2,1.4,3.9,2.7,5.5c1.2,1.5,2.7,2.7,4.4,3.5
	c1.9,0.9,4,1.3,6.1,1.3c1.8,0,3.7-0.2,5.5-0.6c1.4-0.4,2.7-0.9,3.9-1.7L287.6,49.8z"/>
<path class="st1" d="M317.6,42.9h-14l-3.4,9h-9l16.4-40.8h6.6l16.5,40.7h-9.4L317.6,42.9z M305.9,36.5h9.8l-3.3-9l-1.4-6.3h-0.4
	l-1.4,6.5L305.9,36.5z"/>
<path class="st1" d="M369.9,30.9l1-8h-0.4l-2.8,6.5L358,44.5h-2.9l-10.3-15.2l-2.9-6.4h-0.4l1.3,8v21h-8.5V11.4h8.1l12.3,18.5
	l2.2,4.7h0.3l2-4.7l11.5-18.4h8v40.5h-9V30.9H369.9z"/>
<path class="st1" d="M386.6,11.8c2-0.3,4-0.6,6.1-0.7c2.2-0.2,4.4-0.2,6.5-0.2c2.3,0,4.5,0.2,6.8,0.5c2.1,0.3,4.2,1,6.1,1.9
	c1.8,0.9,3.3,2.4,4.4,4.1c1.2,2.1,1.8,4.4,1.7,6.8c0.1,2.2-0.4,4.5-1.5,6.5c-1,1.7-2.3,3.2-4,4.3c-1.7,1.1-3.6,1.9-5.6,2.4
	c-2.1,0.5-4.3,0.7-6.5,0.7h-2.4c-0.5,0-1-0.1-1.5-0.1s-0.8-0.1-1.1-0.1v14h-9L386.6,11.8L386.6,11.8z M399.9,17.6
	c-0.8,0-1.6,0-2.4,0.1c-0.6,0-1.3,0.1-1.9,0.2V31c0.3,0.1,0.5,0.1,0.8,0.1c0.4,0,0.7,0.1,1.1,0.1h2c1.2,0,2.4-0.1,3.5-0.3
	c1.1-0.2,2.1-0.5,3.1-1c0.9-0.5,1.7-1.3,2.2-2.2c0.6-1.1,0.9-2.4,0.8-3.6c0.1-1.1-0.2-2.2-0.8-3.1c-0.5-0.8-1.2-1.5-2.1-2
	c-0.9-0.5-1.9-0.8-2.9-1C402.2,17.7,401.1,17.6,399.9,17.6z"/>
<path class="st1" d="M74.6,30.5c0-7.2,1.7-12.9,5.2-16.7s8.4-5.9,14.7-5.9c3-0.1,6,0.5,8.7,1.7c2.4,1,4.5,2.6,6.2,4.6
	c1.7,2.1,3,4.5,3.7,7.2c0.8,3,1.2,6.1,1.2,9.2c0,7.2-1.8,12.9-5.2,16.7s-8.4,5.8-14.7,5.8c-3,0.1-6-0.5-8.8-1.6
	c-2.4-1-4.5-2.6-6.2-4.6c-1.7-2.1-2.9-4.5-3.6-7.2C75,36.7,74.6,33.6,74.6,30.5z M84.2,30.5c0,2,0.2,4,0.7,6c0.3,1.7,1,3.3,1.9,4.8
	c0.8,1.3,1.9,2.4,3.2,3.1c4.1,2.2,9.2,1.2,12.2-2.4c1.8-2.3,2.7-6.2,2.7-11.5c0-2-0.2-3.9-0.6-5.9c-0.3-1.7-0.9-3.3-1.8-4.7
	c-0.8-1.3-1.9-2.4-3.2-3.2c-4.2-2.2-9.4-1.2-12.4,2.5C85.1,21.5,84.2,25.3,84.2,30.5z"/>
</svg>
