<svg id="Capa_1" data-name="Capa 1" xmlns="http://www.w3.org/2000/svg" viewBox="0 0 615 75.82"><defs><style>.cls-1{fill:none;}.cls-2{fill:#fff;}.cls-3{fill:#fe4918;}</style></defs><title>logo</title><rect class="cls-1" x="30" y="4.82" width="585" height="71"/><path class="cls-2" d="M57.1,38.12H75.9V60.58a19,19,0,0,1-7.24,3.68,31.77,31.77,0,0,1-8.32,1.15,25.89,25.89,0,0,1-9-1.52,18.31,18.31,0,0,1-7.16-4.71A22.58,22.58,0,0,1,39.46,51,36.15,36.15,0,0,1,37.74,39.2a31.92,31.92,0,0,1,2-12.13,22.82,22.82,0,0,1,5.4-8.14,20.51,20.51,0,0,1,7.52-4.54,26.66,26.66,0,0,1,8.5-1.4,39.55,39.55,0,0,1,7.59.65A34.62,34.62,0,0,1,74,15l-2,8.27a21.06,21.06,0,0,0-4-1.11,34,34,0,0,0-5.69-.4,16.73,16.73,0,0,0-5.69.94,11.09,11.09,0,0,0-4.5,3.06,14.53,14.53,0,0,0-3,5.44,26.9,26.9,0,0,0-1,8.06,26.78,26.78,0,0,0,1,7.81,15,15,0,0,0,2.81,5.4,11.12,11.12,0,0,0,4.21,3.14,13.28,13.28,0,0,0,5.15,1A14.59,14.59,0,0,0,65,56.16a8.5,8.5,0,0,0,3-1.41v-9.5L57.1,44.1Z" transform="translate(-5 -9.18)"/><path class="cls-2" d="M113.65,64.4H81.75V14h9.86V55.62h22Z" transform="translate(-5 -9.18)"/><path class="cls-2" d="M173.6,42.15l.94,8.93h.28l1-9.07,8.78-28h6.48l8.64,28.15,1,8.93H201l1.1-9.07,6.25-28h9.86l-13.9,50.76h-6.62l-9-28-1.22-7.7h-.36l-1.23,7.77L177,64.76h-7L156.18,14H166.9Z" transform="translate(-5 -9.18)"/><path class="cls-2" d="M222.56,14h29.88v8.78h-20V34.52h18.22V43.3H232.42V55.62H252.8V64.4H222.56Z" transform="translate(-5 -9.18)"/><path class="cls-2" d="M294.05,25.74a15.5,15.5,0,0,1-.46,3.74,10.39,10.39,0,0,1-1.54,3.42,11.2,11.2,0,0,1-2.79,2.74,12.16,12.16,0,0,1-4.15,1.76v.43a16.61,16.61,0,0,1,4.08,1.23,10.39,10.39,0,0,1,3.37,2.37,11,11,0,0,1,2.25,3.67,14.35,14.35,0,0,1,.83,5.12A13.09,13.09,0,0,1,294,57a13.65,13.65,0,0,1-4.43,4.64,20.3,20.3,0,0,1-6.3,2.67,30.71,30.71,0,0,1-7.27.86h-3.13c-1.27,0-2.64,0-4.1-.11s-3-.18-4.47-.32a32.75,32.75,0,0,1-4.14-.65V14.36c.91-.14,2-.29,3.13-.43s2.44-.27,3.78-.36,2.73-.17,4.14-.22,2.82-.07,4.22-.07a43,43,0,0,1,6.87.54,19.71,19.71,0,0,1,6,1.91,11,11,0,0,1,4.21,3.81A11.28,11.28,0,0,1,294.05,25.74ZM273,35.17c.67,0,1.45,0,2.34-.07a19.55,19.55,0,0,0,2.19-.22,13,13,0,0,0,4.72-2.56,5.65,5.65,0,0,0,2-4.49,5.9,5.9,0,0,0-.72-3.06,5.52,5.52,0,0,0-1.91-1.93,8.2,8.2,0,0,0-2.7-1,17.06,17.06,0,0,0-3.17-.29c-1.24,0-2.4,0-3.45.07a21.32,21.32,0,0,0-2.45.22V35.17Zm3.12,21.67a13.49,13.49,0,0,0,3.43-.43,8.71,8.71,0,0,0,2.93-1.32,6.87,6.87,0,0,0,2.05-2.24,6.31,6.31,0,0,0,.78-3.21,6.57,6.57,0,0,0-.92-3.71,6.25,6.25,0,0,0-2.4-2.1,9.79,9.79,0,0,0-3.32-1,32.58,32.58,0,0,0-3.68-.22h-5.16V56.41a4.2,4.2,0,0,0,1.13.22c.52,0,1.07.08,1.66.1l1.84.07C275.06,56.83,275.61,56.84,276.08,56.84Z" transform="translate(-5 -9.18)"/><path class="cls-2" d="M336.82,62.34A15.12,15.12,0,0,1,331,64.69a36.76,36.76,0,0,1-7.31.72A26.07,26.07,0,0,1,315,64a18.27,18.27,0,0,1-7.16-4.53,22.32,22.32,0,0,1-4.94-8.14,35.44,35.44,0,0,1-1.83-12.13,32.85,32.85,0,0,1,2.05-12.42,22.43,22.43,0,0,1,5.33-8.06,19.67,19.67,0,0,1,7.31-4.4A25.45,25.45,0,0,1,323.86,13a38.82,38.82,0,0,1,7.31.58,27.21,27.21,0,0,1,4.93,1.36l-1.94,8.36a14.23,14.23,0,0,0-3.93-1.15,35.84,35.84,0,0,0-5.51-.36A12,12,0,0,0,315.11,26q-3.63,4.26-3.63,13.21a27.57,27.57,0,0,0,.86,7.1A15.27,15.27,0,0,0,315,51.82a12,12,0,0,0,4.39,3.54,13.92,13.92,0,0,0,6.09,1.26,20,20,0,0,0,5.47-.64,16.75,16.75,0,0,0,3.89-1.66Z" transform="translate(-5 -9.18)"/><path class="cls-2" d="M364.61,53.24H349.13L345.32,64.4h-9.87L353.6,13.64h7.27L379,64.4H368.65Zm-13-7.92h10.8l-3.74-11.23-1.51-7.92h-.36l-1.51,8Z" transform="translate(-5 -9.18)"/><path class="cls-2" d="M422.43,38.26l1.08-10h-.43L420,36.32,409.25,55.11h-3.17l-11.3-18.86-3.17-8h-.36l1.44,9.93V64.4h-9.36V14h9L405.8,37l2.37,5.76h.29l2.16-5.9L423.36,14h8.93V64.4h-9.86V38.26Z" transform="translate(-5 -9.18)"/><path class="cls-2" d="M440.93,14.5q3-.57,6.66-.9t7.24-.32a46.78,46.78,0,0,1,7.52.61,18.79,18.79,0,0,1,6.8,2.45,14.26,14.26,0,0,1,4.94,5.11A16.87,16.87,0,0,1,476,30a17.7,17.7,0,0,1-1.65,8A15.34,15.34,0,0,1,470,43.37a17.56,17.56,0,0,1-6.23,3,28,28,0,0,1-7.24.93h-1.15l-1.65,0c-.58,0-1.15-.06-1.7-.11s-.94-.1-1.18-.14V64.4h-9.87V14.5Zm14.69,7.27c-1,0-1.87,0-2.74.11a20.08,20.08,0,0,0-2.08.26V38.48a5.86,5.86,0,0,0,.86.14c.38.05.79.09,1.22.11s.86,0,1.26,0h.9a20.85,20.85,0,0,0,3.86-.36,9.69,9.69,0,0,0,3.42-1.33,7,7,0,0,0,2.41-2.7,9.88,9.88,0,0,0,.9-4.54,7.93,7.93,0,0,0-.87-3.92,7,7,0,0,0-2.27-2.49,8.83,8.83,0,0,0-3.2-1.29A18.65,18.65,0,0,0,455.62,21.77Z" transform="translate(-5 -9.18)"/><rect class="cls-3" width="18" height="58.82"/><path class="cls-2" d="M114.06,39.49q0-12.6,5.55-19.4t15.84-6.81a22.32,22.32,0,0,1,9.43,1.87,17.86,17.86,0,0,1,6.7,5.33,23.59,23.59,0,0,1,4,8.28,41.58,41.58,0,0,1,1.29,10.73q0,12.6-5.58,19.4t-15.8,6.81a22.53,22.53,0,0,1-9.51-1.87,17.5,17.5,0,0,1-6.66-5.33,23.71,23.71,0,0,1-3.92-8.28A41.51,41.51,0,0,1,114.06,39.49Zm10.37,0a35.52,35.52,0,0,0,.65,7,18,18,0,0,0,2,5.51,10.12,10.12,0,0,0,3.42,3.6,10.15,10.15,0,0,0,13.1-2.81q2.88-4.11,2.88-13.32a35.88,35.88,0,0,0-.61-6.84,18.91,18.91,0,0,0-1.91-5.54,9.88,9.88,0,0,0-3.38-3.71,10.14,10.14,0,0,0-13.25,2.88Q124.43,30.49,124.43,39.49Z" transform="translate(-5 -9.18)"/></svg>