<?xml version="1.0" encoding="utf-8"?>
<!-- Generator: Adobe Illustrator 24.0.0, SVG Export Plug-In . SVG Version: 6.00 Build 0)  -->
<svg version="1.1" id="Capa_1" xmlns="http://www.w3.org/2000/svg" xmlns:xlink="http://www.w3.org/1999/xlink" x="0px" y="0px"
	 viewBox="0 0 478 58.8" style="enable-background:new 0 0 478 58.8;" xml:space="preserve">
<style type="text/css">
	.st0{fill:none;}
	.st1{fill:#FFFFFF;}
	.st2{fill:#FE4918;}
</style>
<title>logo</title>
<rect x="30" y="4.8" class="st0" width="585" height="71"/>
<path class="st1" d="M52.1,28.9h18.8v22.5c-2.1,1.7-4.6,3-7.2,3.7c-2.7,0.7-5.5,1.1-8.3,1.2c-3.1,0-6.1-0.5-9-1.5
	c-2.7-1-5.2-2.6-7.2-4.7c-2.1-2.4-3.7-5.2-4.7-8.2C33.2,38,32.7,34,32.7,30c-0.1-4.1,0.6-8.3,2-12.1c1.2-3.1,3-5.8,5.4-8.1
	c2.1-2,4.7-3.6,7.5-4.5c2.7-0.9,5.6-1.4,8.5-1.4c2.5,0,5.1,0.2,7.6,0.6c1.8,0.3,3.5,0.8,5.3,1.4l-2,8.3c-1.3-0.5-2.6-0.9-4-1.1
	c-1.9-0.3-3.8-0.4-5.7-0.4c-1.9,0-3.9,0.3-5.7,0.9c-1.7,0.6-3.3,1.7-4.5,3.1c-1.4,1.6-2.4,3.4-3,5.4c-0.7,2.6-1.1,5.3-1,8.1
	c-0.1,2.6,0.3,5.3,1,7.8c0.6,2,1.5,3.8,2.8,5.4c1.1,1.4,2.6,2.4,4.2,3.1c1.6,0.7,3.4,1,5.2,1c1.3,0,2.5-0.1,3.7-0.5
	c1.1-0.3,2.1-0.7,3-1.4v-9.5l-10.9-1.2V28.9z"/>
<path class="st1" d="M108.7,55.2H76.8V4.8h9.9v41.6h22L108.7,55.2z"/>
<path class="st1" d="M168.6,33l0.9,8.9h0.3l1-9.1l8.8-28h6.5l8.6,28.2l1,8.9h0.3l1.1-9.1l6.3-28h9.9l-13.9,50.8h-6.6l-9-28l-1.2-7.7
	h-0.4l-1.2,7.8L172,55.6h-7L151.2,4.8h10.7L168.6,33z"/>
<path class="st1" d="M217.6,4.8h29.9v8.8h-20v11.7h18.2v8.8h-18.2v12.3h20.4v8.8h-30.2V4.8z"/>
<path class="st1" d="M289,16.6c0,1.3-0.2,2.5-0.5,3.7c-0.3,1.2-0.8,2.4-1.5,3.4c-0.8,1.1-1.7,2-2.8,2.7c-1.3,0.8-2.7,1.4-4.1,1.8
	v0.4c1.4,0.2,2.8,0.6,4.1,1.2c1.3,0.6,2.4,1.4,3.4,2.4c1,1.1,1.7,2.3,2.3,3.7c0.6,1.6,0.9,3.4,0.8,5.1c0.1,2.4-0.5,4.7-1.6,6.8
	c-1.1,1.9-2.6,3.5-4.4,4.6c-1.9,1.2-4.1,2.1-6.3,2.7c-2.4,0.6-4.8,0.9-7.3,0.9h-3.1c-1.3,0-2.6,0-4.1-0.1s-3-0.2-4.5-0.3
	c-1.4-0.1-2.8-0.3-4.1-0.7V5.2c0.9-0.1,2-0.3,3.1-0.4s2.4-0.3,3.8-0.4s2.7-0.2,4.1-0.2s2.8-0.1,4.2-0.1c2.3,0,4.6,0.2,6.9,0.5
	c2.1,0.3,4.1,1,6,1.9c1.7,0.9,3.2,2.2,4.2,3.8C288.6,12.2,289.1,14.4,289,16.6z M268,26c0.7,0,1.5,0,2.3-0.1c0.7,0,1.5-0.1,2.2-0.2
	c1.7-0.5,3.3-1.4,4.7-2.6c1.3-1.1,2.1-2.8,2-4.5c0-1.1-0.2-2.1-0.7-3.1c-0.5-0.8-1.1-1.5-1.9-1.9c-0.8-0.5-1.7-0.8-2.7-1
	c-1-0.2-2.1-0.3-3.2-0.3c-1.2,0-2.4,0-3.5,0.1c-0.8,0-1.6,0.1-2.5,0.2V26H268z M271.1,47.7c1.2,0,2.3-0.1,3.4-0.4
	c1.1-0.3,2-0.7,2.9-1.3c0.8-0.6,1.5-1.3,2-2.2c0.5-1,0.8-2.1,0.8-3.2c0.1-1.3-0.3-2.6-0.9-3.7c-0.6-0.9-1.4-1.6-2.4-2.1
	c-1-0.5-2.2-0.9-3.3-1c-1.2-0.1-2.5-0.2-3.7-0.2h-5.2v13.8c0.4,0.1,0.7,0.2,1.1,0.2c0.5,0,1.1,0.1,1.7,0.1l1.8,0.1
	C270.1,47.7,270.6,47.7,271.1,47.7L271.1,47.7z"/>
<path class="st1" d="M331.8,53.2c-1.8,1.2-3.7,2-5.8,2.4c-2.4,0.5-4.9,0.7-7.3,0.7c-3,0-5.9-0.5-8.7-1.4c-2.7-0.9-5.2-2.5-7.2-4.5
	c-2.2-2.3-3.9-5.1-4.9-8.1c-1.3-3.9-1.9-8-1.8-12.1c-0.1-4.2,0.6-8.5,2-12.4c1.2-3,3-5.8,5.3-8.1c2.1-2,4.6-3.5,7.3-4.4
	c2.6-0.9,5.3-1.3,8.1-1.3c2.4,0,4.9,0.2,7.3,0.6c1.7,0.3,3.3,0.8,4.9,1.4l-1.9,8.4c-1.2-0.6-2.6-1-3.9-1.1c-1.8-0.3-3.7-0.4-5.5-0.4
	c-3.7-0.1-7.2,1.4-9.6,4.2c-2.4,2.8-3.6,7.2-3.6,13.2c0,2.4,0.3,4.8,0.9,7.1c0.5,2,1.4,3.9,2.7,5.5c1.2,1.5,2.7,2.7,4.4,3.5
	c1.9,0.9,4,1.3,6.1,1.3c1.8,0,3.7-0.2,5.5-0.6c1.4-0.4,2.7-0.9,3.9-1.7L331.8,53.2z"/>
<path class="st1" d="M359.6,44.1h-15.5l-3.8,11.2h-9.9l18.1-50.8h7.3L374,55.2h-10.4L359.6,44.1z M346.6,36.1h10.8l-3.7-11.2
	l-1.5-7.9h-0.4l-1.5,8L346.6,36.1z"/>
<path class="st1" d="M417.4,29.1l1.1-10h-0.4l-3.1,8.1l-10.8,18.8h-3.2l-11.3-18.9l-3.2-8h-0.4l1.4,9.9v26.2h-9.4V4.8h9l13.5,23
	l2.4,5.8h0.3l2.2-5.9l12.7-22.9h8.9v50.4h-9.9V29.1z"/>
<path class="st1" d="M435.9,5.3c2-0.4,4.2-0.7,6.7-0.9c2.4-0.2,4.9-0.3,7.2-0.3c2.5,0,5,0.2,7.5,0.6c2.4,0.4,4.7,1.2,6.8,2.4
	c2.1,1.3,3.8,3,4.9,5.1c1.4,2.6,2,5.6,1.9,8.5c0.1,2.8-0.5,5.5-1.6,8c-1,2.1-2.5,3.9-4.4,5.4c-1.9,1.4-4,2.4-6.2,3
	c-2.4,0.6-4.8,0.9-7.2,0.9h-1.1h-1.6c-0.6,0-1.1-0.1-1.7-0.1s-0.9-0.1-1.2-0.1v17.4H436L435.9,5.3L435.9,5.3z M450.6,12.6
	c-1,0-1.9,0-2.7,0.1c-0.7,0.1-1.4,0.1-2.1,0.3v16.3c0.3,0.1,0.6,0.1,0.9,0.1c0.4,0,0.8,0.1,1.2,0.1s0.9,0,1.3,0h0.9
	c1.3,0,2.6-0.1,3.9-0.4c1.2-0.2,2.4-0.7,3.4-1.3c1-0.7,1.9-1.6,2.4-2.7c0.7-1.4,1-3,0.9-4.5c0.1-1.4-0.2-2.7-0.9-3.9
	c-0.5-1-1.3-1.9-2.3-2.5c-1-0.6-2.1-1.1-3.2-1.3C453.1,12.7,451.9,12.6,450.6,12.6z"/>
<rect class="st2" width="18" height="58.8"/>
<path class="st1" d="M109.1,30.3c0-8.4,1.8-14.9,5.6-19.4c3.7-4.5,9-6.8,15.8-6.8c3.2-0.1,6.5,0.6,9.4,1.9c2.6,1.2,4.9,3,6.7,5.3
	c1.9,2.5,3.2,5.3,4,8.3c0.9,3.5,1.3,7.1,1.3,10.7c0,8.4-1.9,14.9-5.6,19.4s-9,6.8-15.8,6.8c-3.3,0.1-6.5-0.6-9.5-1.9
	c-2.6-1.2-4.9-3-6.7-5.3c-1.8-2.5-3.2-5.3-3.9-8.3C109.5,37.5,109,33.9,109.1,30.3z M119.4,30.3c0,2.3,0.2,4.7,0.7,7
	c0.4,1.9,1,3.8,2,5.5c0.8,1.5,2,2.7,3.4,3.6c4.5,2.5,10.1,1.3,13.1-2.8c1.9-2.7,2.9-7.2,2.9-13.3c0-2.3-0.2-4.6-0.6-6.8
	c-0.3-1.9-1-3.8-1.9-5.5c-0.8-1.5-2-2.8-3.4-3.7c-4.5-2.6-10.2-1.3-13.3,2.9C120.4,19.9,119.4,24.3,119.4,30.3z"/>
</svg>
